:FULLY-SPECIFIED
:FORCE-ALL-JOINTS-BE-3DOF
:DEGREES
2242
root -0.73289 13.7945 -16.6432 911.846 -26.0697 168.653
lfemur 11.4556 -0.959272 -15.2542
ltibia 32.7495 0 0
lfoot -23.6671 36.8751 0
ltoes -44.5354 0 0
rfemur -72.6414 -23.4736 9.36455
rtibia 73.2225 0 0
rfoot -6.38839 13.9586 0
rtoes 3.06803 0 0
lowerback 8.88879 1.99369 -13.3354
upperback -3.11253 0.682486 -2.03264
thorax -8.59939 0.904472 5.18751
lowerneck 0.884845 -11.9945 -12.4221
upperneck 5.34147 -16.7438 10.3546
head 3.3595 -8.4128 4.36617
lclavicle -9.05101e-15 -1.69551e-14 0
lhumerus -69.7434 -17.8005 103.995
lradius 102.237 0 0
lwrist 60.8739 0 0
lhand -11.6828 421.251 0
lfingers 7.12502 0 0
lthumb 14.8629 -451.547 0
rclavicle -1.50997e-14 -7.73098e-15 0
rhumerus 49.0947 -9.77458 -58.8024
rradius 17.1108 0 0
rwrist 34.2655 0 0
rhand -19.93 -402.761 0
rfingers 7.12502 0 0
rthumb 6.54242 287.557 0
2243
root -0.738182 13.7923 -16.6567 911.9 -26.0697 168.639
lfemur 11.6296 -0.973209 -15.3189
ltibia 32.6686 0 0
lfoot -23.6455 36.8658 0
ltoes -44.564 0 0
rfemur -72.8196 -23.5403 9.38977
rtibia 73.4258 0 0
rfoot -6.5159 14.0383 0
rtoes 3.1404 0 0
lowerback 8.81033 1.97232 -13.3602
upperback -3.10084 0.661298 -2.0561
thorax -8.53695 0.889746 5.18074
lowerneck 0.881237 -12.0232 -12.3823
upperneck 5.25579 -16.7757 10.3854
head 3.33741 -8.42669 4.36928
lclavicle -7.64754e-15 -1.64336e-14 0
lhumerus -69.7389 -17.8315 104.005
lradius 102.19 0 0
lwrist 60.9244 0 0
lhand -11.6974 421.07 0
lfingers 7.12502 0 0
lthumb 14.8133 -451.421 0
rclavicle -1.03575e-14 -4.32473e-15 0
rhumerus 49.1015 -9.76749 -58.8302
rradius 17.1124 0 0
rwrist 34.2443 0 0
rhand -19.9075 -402.743 0
rfingers 7.12502 0 0
rthumb 6.54026 287.577 0
2244
root -0.745801 13.7866 -16.6712 911.828 -25.9678 168.714
lfemur 11.7851 -0.985675 -15.3768
ltibia 32.5771 0 0
lfoot -23.619 36.8543 0
ltoes -44.5712 0 0
rfemur -72.952 -23.5898 9.40852
rtibia 73.632 0 0
rfoot -6.64259 14.1174 0
rtoes 3.21713 0 0
lowerback 8.77237 1.9861 -13.3246
upperback -3.06658 0.693873 -2.06068
thorax -8.48138 0.899008 5.15182
lowerneck 0.817096 -12.0534 -12.2905
upperneck 5.19321 -16.7955 10.3189
head 3.31793 -8.43312 4.33317
lclavicle -5.76561e-15 -1.57343e-14 0
lhumerus -69.7338 -17.8657 104.016
lradius 102.145 0 0
lwrist 60.9824 0 0
lhand -11.7112 420.899 0
lfingers 7.12502 0 0
lthumb 14.7733 -451.319 0
rclavicle -5.68325e-15 -9.6733e-16 0
rhumerus 49.1072 -9.76166 -58.8531
rradius 17.112 0 0
rwrist 34.237 0 0
rhand -19.8844 -402.725 0
rfingers 7.12502 0 0
rthumb 6.53849 287.593 0
2245
root -0.751427 13.7849 -16.6824 911.821 -25.9564 168.756
lfemur 11.9193 -0.996424 -15.4267
ltibia 32.4761 0 0
lfoot -23.588 36.8409 0
ltoes -44.5923 0 0
rfemur -73.0346 -23.6207 9.4202
rtibia 73.8393 0 0
rfoot -6.76683 14.195 0
rtoes 3.29736 0 0
lowerback 8.75177 1.98223 -13.2884
upperback -3.05347 0.696837 -2.07223
thorax -8.45378 0.895961 5.11932
lowerneck 0.827318 -12.0863 -12.2726
upperneck 5.09905 -16.8326 10.3406
head 3.29266 -8.45041 4.33738
lclavicle -3.45308e-15 -1.4875e-14 0
lhumerus -69.7284 -17.9025 104.028
lradius 102.103 0 0
lwrist 61.0466 0 0
lhand -11.724 420.742 0
lfingers 7.12502 0 0
lthumb 14.7436 -451.243 0
rclavicle -1.12237e-15 2.30864e-15 0
rhumerus 49.1114 -9.75727 -58.8703
rradius 17.1107 0 0
rwrist 34.2338 0 0
rhand -19.8609 -402.706 0
rfingers 7.12502 0 0
rthumb 6.53716 287.605 0
2246
root -0.744571 13.7787 -16.6844 912.087 -26.101 168.657
lfemur 12.0289 -1.00521 -15.4675
ltibia 32.367 0 0
lfoot -23.553 36.8258 0
ltoes -44.626 0 0
rfemur -73.063 -23.6313 9.42422
rtibia 74.0455 0 0
rfoot -6.88698 14.27 0
rtoes 3.38021 0 0
lowerback 8.71656 1.90999 -13.4454
upperback -3.11912 0.575665 -2.0842
thorax -8.48862 0.848208 5.21284
lowerneck 0.83718 -12.0845 -12.2646
upperneck 4.97123 -16.8213 10.3911
head 3.25526 -8.44342 4.35652
lclavicle -7.57779e-16 -1.38734e-14 0
lhumerus -69.7227 -17.9415 104.041
lradius 102.062 0 0
lwrist 61.1156 0 0
lhand -11.7355 420.6 0
lfingers 7.12502 0 0
lthumb 14.7251 -451.196 0
rclavicle 3.2798e-15 5.47062e-15 0
rhumerus 49.1141 -9.7545 -58.8811
rradius 17.1088 0 0
rwrist 34.2244 0 0
rhand -19.8371 -402.687 0
rfingers 7.12502 0 0
rthumb 6.53632 287.612 0
2247
root -0.749613 13.7742 -16.6923 912.075 -25.9849 168.651
lfemur 12.111 -1.01179 -15.4981
ltibia 32.2511 0 0
lfoot -23.5147 36.8092 0
ltoes -44.6715 0 0
rfemur -73.065 -23.6312 9.42298
rtibia 74.2488 0 0
rfoot -7.00143 14.3415 0
rtoes 3.46481 0 0
lowerback 8.71517 1.9408 -13.501
upperback -3.10714 0.608715 -2.09635
thorax -8.48289 0.86512 5.22502
lowerneck 0.856757 -12.0951 -12.2693
upperneck 4.88642 -16.8291 10.402
head 3.22892 -8.44713 4.36355
lclavicle 2.27244e-15 -1.27474e-14 0
lhumerus -69.7167 -17.9823 104.054
lradius 102.025 0 0
lwrist 61.1879 0 0
lhand -11.7456 420.474 0
lfingers 7.12502 0 0
lthumb 14.7188 -451.18 0
rclavicle 7.47792e-15 8.48604e-15 0
rhumerus 49.115 -9.75354 -58.8849
rradius 17.1062 0 0
rwrist 34.2093 0 0
rhand -19.8133 -402.668 0
rfingers 7.12502 0 0
rthumb 6.53603 287.615 0
2248
root -0.754418 13.7695 -16.7012 912.132 -25.8977 168.594
lfemur 12.1625 -1.01592 -15.5173
ltibia 32.1295 0 0
lfoot -23.4734 36.7914 0
ltoes -44.7275 0 0
rfemur -73.0707 -23.6309 9.41939
rtibia 74.4472 0 0
rfoot -7.10852 14.4084 0
rtoes 3.55028 0 0
lowerback 8.63967 1.97181 -13.5908
upperback -3.0834 0.649518 -2.12027
thorax -8.42336 0.882932 5.24329
lowerneck 0.811883 -12.1514 -12.2993
upperneck 4.83781 -16.8947 10.4248
head 3.23359 -8.47738 4.36699
lclavicle 5.58973e-15 -1.15147e-14 0
lhumerus -69.7105 -18.0244 104.068
lradius 101.992 0 0
lwrist 61.2623 0 0
lhand -11.7543 420.367 0
lfingers 7.12502 0 0
lthumb 14.7094 -450.296 0
rclavicle 1.14266e-14 1.13223e-14 0
rhumerus 49.115 -9.75305 -58.879
rradius 17.103 0 0
rwrist 34.189 0 0
rhand -19.7898 -402.649 0
rfingers 7.12502 0 0
rthumb 6.53777 287.615 0
